<svg width="152" height="175" viewBox="0 0 152 175" fill="none" xmlns="http://www.w3.org/2000/svg">
<path d="M28.6398 14.354L21.1863 1H84.8509L92.9255 14.354L91.6832 19.9441L62.1801 28.6398V26.1553H51L54.4161 30.8137L21.1863 41.6832L28.6398 14.354Z" fill="white"/>
<path d="M86.7143 23.9814L82.677 40.1304H59.3851L61.559 31.7453L86.7143 23.9814Z" fill="white"/>
<path d="M23.9814 43.236L49.7578 35.1615L46.6522 48.205H55.3478V48.8261H78.6397L78.0186 46.9627H98.8261L100.689 50.3789L88.5776 54.7267L78.0186 58.4534L48.8261 69.0124H17.4596L23.9814 43.236Z" fill="white"/>
<path d="M13.7329 82.0559L15.2857 78.0186L21.4969 78.3292L23.3602 77.3975H26.4658L13.7329 82.0559Z" fill="white"/>
<path d="M107.211 47.2733L107.832 47.8944L112.18 46.2036L110.006 46.0311L107.211 47.2733Z" fill="white"/>
<path d="M24.913 81.7453L10.0062 87.3354L1 122.118L42.9255 103.484L47.2733 84.8509H46.0311L41.6832 102.863L36.0932 105.348H32.677L38.5776 80.8137H37.0248V81.7453H24.913Z" fill="white"/>
<path d="M44.4783 102.863L52.2422 71.8074L81.1242 61.559L73.9814 89.8199L85.7826 84.8509L92.6149 57.2112L107.211 51.9317L111.248 57.8323L110.006 73.9814L115.596 71.4969L120.565 57.8323L115.286 49.1366L121.186 46.9627H137.646L144.478 58.4534L115.596 71.4969L110.006 73.9814L85.7826 84.8509L73.9814 89.8199L44.4783 102.863Z" fill="white"/>
<path d="M116.839 58.4534L116.217 65.2857L117.77 62.1801V58.4534L112.18 49.4472L111.559 49.7578L116.839 58.4534Z" fill="white"/>
<path d="M139.199 64.0435L127.708 111.87L105.348 116.839L106.59 108.764L103.174 117.46L99.4472 118.081V109.075L96.9627 118.081L77.7081 122.429L63.4224 125.845L32.677 132.366H7.8323L10.9379 120.876L46.3416 105.037L48.205 104.727V105.969H49.4472V103.484L76.1553 91.9938L69.0124 119.634L63.4224 125.845L77.7081 122.429L86.7143 87.0248L109.075 77.3975L108.143 89.1988L113.422 75.5342L139.199 64.0435Z" fill="white"/>
<path d="M57.2112 130.503L28.3292 136.714H52.2422L57.2112 130.503Z" fill="white"/>
<path d="M59.3851 140.441L67.4596 132.366L67.1491 134.54L60.6273 141.062H5.65839V140.441H59.3851Z" fill="white"/>
<path d="M69.0124 132.366L74.6025 126.776L96.3416 122.429L85.1615 165.286H61.2484L69.0124 132.366Z" fill="white"/>
<path d="M98.8261 129.882V122.118L102.863 120.876L90.1304 173.981H63.4224V173.36H88.8882L100.845 125.379L98.8261 129.882Z" fill="white"/>
<path d="M94.7888 165.286L105.658 120.565L130.193 115.286L117.77 165.286H94.7888Z" fill="white"/>
<path d="M139.82 112.801H138.578L123.36 173.36H100.068V173.981H124.602L139.82 112.801Z" fill="white"/>
<path d="M91.6832 19.9441L62.1801 28.6398V26.1553H51L54.4161 30.8137L21.1863 41.6832L28.6398 14.354L21.1863 1H84.8509L92.9255 14.354L91.6832 19.9441ZM91.6832 19.9441L102.242 16.8385L93.8571 2.86335M67.4596 42.9255H90.7516L96.3416 20.2547M54.4161 32.9876L57.5217 36.7143L55.0373 46.9627M100.689 50.3789L98.8261 46.9627H78.0186L78.6398 48.8261H55.3478V48.205H46.6522L49.7578 35.1615L23.9814 43.236L17.4596 69.0124H48.8261M100.689 50.3789L105.348 48.8261L103.484 45.7205M100.689 50.3789L88.5776 54.7267M88.5776 54.7267L89.5093 51.3106H79.882L78.0186 58.4534M88.5776 54.7267L78.0186 58.4534M78.0186 58.4534L48.8261 69.0124M48.8261 69.0124L40.1304 72.4286H24.913M38.8882 75.5342H49.4472M113.422 45.7205L112.18 46.2036M112.18 46.2036L107.832 47.8944L107.211 47.2733L110.006 46.0311L112.18 46.2036ZM73.9814 89.8199L44.4783 102.863L52.2422 71.8075L81.1242 61.559L73.9814 89.8199ZM73.9814 89.8199L85.7826 84.8509M85.7826 84.8509L92.6149 57.2112L107.211 51.9317L111.248 57.8323L110.006 73.9814M85.7826 84.8509L110.006 73.9814M110.006 73.9814L115.596 71.4969M115.596 71.4969L144.478 58.4534M115.596 71.4969L120.565 57.8323L115.286 49.1366L121.186 46.9627H137.646L144.478 58.4534M144.478 58.4534L151 55.6584L145.099 46.0311M145.72 60.3168L147.273 63.1118L135.472 110.317L127.708 111.87M127.708 111.87L139.199 64.0435L113.422 75.5342L108.143 89.1988L109.075 77.3975L86.7143 87.0248L77.7081 122.429M127.708 111.87L105.348 116.839L106.59 108.764L103.174 117.46L99.4472 118.081V109.075L96.9627 118.081L77.7081 122.429M77.7081 122.429L63.4224 125.845M63.4224 125.845L69.0124 119.634L76.1553 91.9938L49.4472 103.484V105.969H48.205V104.727L46.3416 105.037L10.9379 120.876L7.8323 132.366H32.677M63.4224 125.845L32.677 132.366M32.677 132.366L15.2857 135.783M102.863 120.876L98.8261 122.118V129.882L100.845 125.379M102.863 120.876L90.1304 173.981H63.4224V173.36H88.8882L100.845 125.379M102.863 120.876L100.845 125.379M82.677 40.1304L86.7143 23.9814L61.559 31.7453L59.3851 40.1304H82.677ZM15.2857 78.0186L13.7329 82.0559L26.4658 77.3975H23.3602L21.4969 78.3292L15.2857 78.0186ZM10.0062 87.3354L24.913 81.7453H37.0248V80.8137H38.5776L32.677 105.348H36.0932L41.6832 102.863L46.0311 84.8509H47.2733L42.9255 103.484L1 122.118L10.0062 87.3354ZM116.217 65.2857L116.839 58.4534L111.559 49.7578L112.18 49.4472L117.77 58.4534V62.1801L116.217 65.2857ZM28.3292 136.714L57.2112 130.503L52.2422 136.714H28.3292ZM67.4596 132.366L59.3851 140.441H5.65839V141.062H60.6273L67.1491 134.54L67.4596 132.366ZM74.6025 126.776L69.0124 132.366L61.2484 165.286H85.1615L96.3416 122.429L74.6025 126.776ZM105.658 120.565L94.7888 165.286H117.77L130.193 115.286L105.658 120.565ZM138.578 112.801H139.82L124.602 173.981H100.068V173.36H123.36L138.578 112.801Z" stroke="white"/>
</svg>
