<svg width="302" height="164" viewBox="0 0 302 164" fill="none" xmlns="http://www.w3.org/2000/svg">
<path d="M85.3931 26.3881L87.7052 17.3209H69.2081C67.8208 20.2224 73.2543 22.5597 76.1445 23.3657L70.9422 34.2463L45.5087 37.2687L55.3353 11.2761L47.8208 1L106.78 2.20896L114.295 11.2761L108.514 26.3881H85.3931Z" fill="black"/>
<path d="M106.202 35.4552L44.9306 40.291L42.0405 47.5448H77.3006L69.2081 66.2836H61.1156L66.3179 54.194L39.1503 54.7985L27.0116 85.0224L88.8613 77.7687L106.202 35.4552Z" fill="black"/>
<path d="M120.075 2.20896L144.353 1L153.023 11.2761L148.399 25.1791L121.809 27.597L127.012 10.0672L120.075 2.20896Z" fill="black"/>
<path d="M121.231 31.8284L147.243 29.4104L129.902 71.1194L103.89 74.1418L121.231 31.8284Z" fill="black"/>
<path d="M131.058 75.3507L102.156 80.1866L98.6879 89.8582H118.919L131.058 75.3507Z" fill="black"/>
<path d="M218.341 2.20896H158.803L165.74 11.2761L160.538 23.3657L185.393 20.9478L180.191 16.1119H199.266L198.688 19.1343L224.121 17.3209L226.434 10.0672L218.341 2.20896Z" fill="black"/>
<path d="M159.96 27.597L187.127 25.1791L171.52 65.0746L142.618 68.097L159.96 27.597Z" fill="black"/>
<path d="M222.965 20.9478L197.532 23.3657L181.347 63.2612L208.514 59.0298L222.965 20.9478Z" fill="black"/>
<path d="M181.347 66.2836L206.78 63.2612C208.168 77.2851 195.027 86.8358 188.283 89.8582H136.26L141.462 72.9328L171.52 68.097C175.22 73.9 179.613 69.306 181.347 66.2836Z" fill="black"/>
<path d="M238.572 10.0672L231.636 2.20896H291.751L296.376 7.04478L237.416 14.903L238.572 10.0672Z" fill="black"/>
<path d="M236.26 19.1343L301 13.0896L299.844 16.1119L269.208 25.1791L270.942 20.9478H253.023L259.382 26.3881L255.335 35.4552H275.566L256.491 48.1493L250.133 48.7537L247.821 54.194L220.075 57.8209L236.26 19.1343Z" fill="black"/>
<path d="M220.075 60.8433L247.821 56.6119L242.618 69.9104H253.023L255.335 62.0522L285.971 42.709L280.769 60.8433L273.832 80.1866L261.116 89.8582H210.249L220.075 60.8433Z" fill="black"/>
<path d="M17.763 100.739L1 163H13.7168L24.1214 133.381V141.239L28.1676 134.59L21.2312 163H33.3699L49.5549 100.739L44.9306 94.694H33.3699L37.4162 100.739L31.0578 115.851V100.739L25.8555 94.694H13.7168L17.763 100.739Z" fill="black"/>
<path d="M57.0694 100.739L42.0405 163H55.3353L64.0058 130.358H68.052L61.1156 163H73.2543L88.8613 100.739L83.659 94.694H53.0231L57.0694 100.739Z" fill="black"/>
<path d="M113.139 113.433V106.179H105.046C106.78 108.396 109.671 112.828 107.358 112.828C105.046 112.828 104.083 116.455 103.89 118.269L122.965 118.873C119.266 147.404 111.405 160.179 107.936 163H79.6127L87.7052 134.59H101.578L97.2194 147.888H103.89L106.78 130.358H88.8613L96.3757 100.739L93.4855 94.694H121.809L127.012 100.739L124.121 113.433H113.139Z" fill="black"/>
<path d="M76.1445 89.8582H37.4162L88.8613 82L76.1445 89.8582Z" fill="black"/>
<path d="M135.682 100.134L132.214 94.694L163.428 95.2985L168.052 100.739L166.896 106.179H158.803L144.931 153.933C144.006 157.801 141.077 161.59 139.728 163H129.324L143.775 106.179H134.526L135.682 100.134Z" fill="black"/>
<path d="M174.988 100.739L171.52 95.2985H202.156L206.78 100.739L195.22 109.806H191.751L191.173 106.784H183.081L186.549 111.619C182.85 114.037 182.31 117.463 182.503 118.873C185.634 119.016 190.748 119.198 192.826 119.122C193.115 118.923 193.339 118.835 193.486 118.873C194.028 119.015 193.689 119.091 192.826 119.122C188.566 122.059 170.153 149.059 175.566 148.493C180.191 148.009 193.293 133.381 199.266 126.127L193.486 149.097C193.486 158.769 185.393 162.396 181.347 163H158.803L174.988 100.739Z" fill="black"/>
<path d="M213.139 100.739L209.671 94.694L240.306 95.2985L244.931 100.739L237.416 128.545C227.705 133.864 231.829 139.224 235.104 141.239L229.324 162.396C227.936 151.273 221.039 144.06 217.763 141.843C215.913 154.416 208.9 161.187 205.624 163H196.954L213.139 100.739Z" fill="black"/>
<path d="M236.26 163L243.775 134.59H258.803L254.179 147.888H260.538L264.006 130.963H244.931L252.445 101.343L248.977 95.2985H279.613C284.699 100.618 282.503 109.604 280.769 113.433H268.052L269.786 106.784H261.116C264.815 109.201 264.584 111.015 264.006 111.619C260.306 113.554 260.152 116.858 260.538 118.269L279.613 119.478L271.52 153.933C271.983 155.867 266.318 160.784 263.428 163H236.26Z" fill="black"/>
<path d="M85.3931 26.3881L87.7052 17.3209H69.2081C67.8208 20.2224 73.2543 22.5597 76.1445 23.3657L70.9422 34.2463L45.5087 37.2687L55.3353 11.2761L47.8208 1L106.78 2.20896L114.295 11.2761L108.514 26.3881H85.3931Z" stroke="black"/>
<path d="M106.202 35.4552L44.9306 40.291L42.0405 47.5448H77.3006L69.2081 66.2836H61.1156L66.3179 54.194L39.1503 54.7985L27.0116 85.0224L88.8613 77.7687L106.202 35.4552Z" stroke="black"/>
<path d="M120.075 2.20896L144.353 1L153.023 11.2761L148.399 25.1791L121.809 27.597L127.012 10.0672L120.075 2.20896Z" stroke="black"/>
<path d="M121.231 31.8284L147.243 29.4104L129.902 71.1194L103.89 74.1418L121.231 31.8284Z" stroke="black"/>
<path d="M131.058 75.3507L102.156 80.1866L98.6879 89.8582H118.919L131.058 75.3507Z" stroke="black"/>
<path d="M218.341 2.20896H158.803L165.74 11.2761L160.538 23.3657L185.393 20.9478L180.191 16.1119H199.266L198.688 19.1343L224.121 17.3209L226.434 10.0672L218.341 2.20896Z" stroke="black"/>
<path d="M159.96 27.597L187.127 25.1791L171.52 65.0746L142.618 68.097L159.96 27.597Z" stroke="black"/>
<path d="M222.965 20.9478L197.532 23.3657L181.347 63.2612L208.514 59.0298L222.965 20.9478Z" stroke="black"/>
<path d="M181.347 66.2836L206.78 63.2612C208.168 77.2851 195.027 86.8358 188.283 89.8582H136.26L141.462 72.9328L171.52 68.097C175.22 73.9 179.613 69.306 181.347 66.2836Z" stroke="black"/>
<path d="M238.572 10.0672L231.636 2.20896H291.751L296.376 7.04478L237.416 14.903L238.572 10.0672Z" stroke="black"/>
<path d="M236.26 19.1343L301 13.0896L299.844 16.1119L269.208 25.1791L270.942 20.9478H253.023L259.382 26.3881L255.335 35.4552H275.566L256.491 48.1493L250.133 48.7537L247.821 54.194L220.075 57.8209L236.26 19.1343Z" stroke="black"/>
<path d="M220.075 60.8433L247.821 56.6119L242.618 69.9104H253.023L255.335 62.0522L285.971 42.709L280.769 60.8433L273.832 80.1866L261.116 89.8582H210.249L220.075 60.8433Z" stroke="black"/>
<path d="M17.763 100.739L1 163H13.7168L24.1214 133.381V141.239L28.1676 134.59L21.2312 163H33.3699L49.5549 100.739L44.9306 94.694H33.3699L37.4162 100.739L31.0578 115.851V100.739L25.8555 94.694H13.7168L17.763 100.739Z" stroke="black"/>
<path d="M57.0694 100.739L42.0405 163H55.3353L64.0058 130.358H68.052L61.1156 163H73.2543L88.8613 100.739L83.659 94.694H53.0231L57.0694 100.739Z" stroke="black"/>
<path d="M113.139 113.433V106.179H105.046C106.78 108.396 109.671 112.828 107.358 112.828C105.046 112.828 104.083 116.455 103.89 118.269L122.965 118.873C119.266 147.404 111.405 160.179 107.936 163H79.6127L87.7052 134.59H101.578L97.2194 147.888H103.89L106.78 130.358H88.8613L96.3757 100.739L93.4855 94.694H121.809L127.012 100.739L124.121 113.433H113.139Z" stroke="black"/>
<path d="M76.1445 89.8582H37.4162L88.8613 82L76.1445 89.8582Z" stroke="black"/>
<path d="M135.682 100.134L132.214 94.694L163.428 95.2985L168.052 100.739L166.896 106.179H158.803L144.931 153.933C144.006 157.801 141.077 161.59 139.728 163H129.324L143.775 106.179H134.526L135.682 100.134Z" stroke="black"/>
<path d="M174.988 100.739L171.52 95.2985H202.156L206.78 100.739L195.22 109.806H191.751L191.173 106.784H183.081L186.549 111.619C182.85 114.037 182.31 117.463 182.503 118.873C185.634 119.016 190.748 119.198 192.826 119.122C193.115 118.923 193.339 118.835 193.486 118.873C194.028 119.015 193.689 119.091 192.826 119.122C188.566 122.059 170.153 149.059 175.566 148.493C180.191 148.009 193.293 133.381 199.266 126.127L193.486 149.097C193.486 158.769 185.393 162.396 181.347 163H158.803L174.988 100.739Z" stroke="black"/>
<path d="M213.139 100.739L209.671 94.694L240.306 95.2985L244.931 100.739L237.416 128.545C227.705 133.864 231.829 139.224 235.104 141.239L229.324 162.396C227.936 151.273 221.039 144.06 217.763 141.843C215.913 154.416 208.9 161.187 205.624 163H196.954L213.139 100.739Z" stroke="black"/>
<path d="M236.26 163L243.775 134.59H258.803L254.179 147.888H260.538L264.006 130.963H244.931L252.445 101.343L248.977 95.2985H279.613C284.699 100.618 282.503 109.604 280.769 113.433H268.052L269.786 106.784H261.116C264.815 109.201 264.584 111.015 264.006 111.619C260.306 113.554 260.152 116.858 260.538 118.269L279.613 119.478L271.52 153.933C271.983 155.867 266.318 160.784 263.428 163H236.26Z" stroke="black"/>
</svg>
